<?xml version="1.0" encoding="UTF-8" standalone="no"?>
<svg
   xmlns:dc="http://purl.org/dc/elements/1.1/"
   xmlns:cc="http://creativecommons.org/ns#"
   xmlns:rdf="http://www.w3.org/1999/02/22-rdf-syntax-ns#"
   xmlns:svg="http://www.w3.org/2000/svg"
   xmlns="http://www.w3.org/2000/svg"
   viewBox="0 0 375.84 151.10667"
   height="151.10667"
   width="375.84"
   xml:space="preserve"
   version="1.1"
   id="svg2"><metadata
     id="metadata8"><rdf:RDF><cc:Work
         rdf:about=""><dc:format>image/svg+xml</dc:format><dc:type
           rdf:resource="http://purl.org/dc/dcmitype/StillImage" /></cc:Work></rdf:RDF></metadata><defs
     id="defs6"><clipPath
       id="clipPath18"
       clipPathUnits="userSpaceOnUse"><path
         id="path20"
         d="m 0,0 2818.78,0 0,1133 L 0,1133 0,0 Z" /></clipPath></defs><g
     transform="matrix(1.3333333,0,0,-1.3333333,0,151.10667)"
     id="g10"><g
       transform="scale(0.1)"
       id="g12"><g
         id="g14"><g
           clip-path="url(#clipPath18)"
           id="g16"><path
             id="path22"
             style="fill:#d91920;fill-opacity:1;fill-rule:nonzero;stroke:none"
             d="m 492.41,129.422 -23.515,7.543 C 455.719,140.746 442.566,53.2617 350.324,53.2617 l -76.211,0 c -51.715,0 -68.675,17.8477 -68.675,96.8863 l 0,442.364 c 0,35.722 24.457,50.82 47.992,55.519 6.582,1.875 14.121,2.84 17.851,13.153 l 5.66,15.976 c 4.711,14.16 -4.687,16.016 -12.207,16.016 l -239.0074,0 c -8.4532,0 -13.1641,-2.84 -15.99613,-7.481 L 2.19141,666.867 C -1.54688,659.328 0.324219,651.762 12.5625,649.906 58.6406,639.562 72.7656,632.98 72.7656,592.512 l 0,-486.563 C 72.7656,70.2109 48.3359,55.1289 24.8125,50.4219 18.2266,48.5391 10.6797,47.6016 6.89844,37.2305 L 1.25781,21.2695 C -3.42969,7.14062 5.95703,5.23828 13.5078,5.23828 l 441.2812,0 c 25.363,0 43.254,8.47262 43.254,23.53122 l 0,92.1915 c 0,3.777 -1.859,7.559 -5.633,8.461" /><path
             id="path24"
             style="fill:#d91920;fill-opacity:1;fill-rule:nonzero;stroke:none"
             d="m 1562.39,287.531 -153.34,0 c 0,79.035 39.51,153.34 106.31,153.34 40.47,0 83.74,-27.305 83.74,-111.941 0,-26.348 -11.3,-41.399 -36.71,-41.399 z m -45.14,199.434 c -139.26,0 -240.87,-94.082 -240.87,-251.16 0,-128.946 76.74,-235.305 244.2,-235.305 36.7,0 88.42,8.48047 110.08,18.8203 10.34,5.6797 15.06,15.0586 19.76,23.5195 l 30.09,61.1402 c 7.54,15.079 -19.74,27.301 -29.14,18.848 -32.95,-35.7499 -63.04,-57.4061 -118.57,-57.4061 -95.03,0 -123.75,79.0551 -123.75,171.2421 l 279.41,0 c 13.18,0 21.66,20.742 21.66,37.664 0,126.113 -64.93,212.637 -192.87,212.637" /><path
             id="path26"
             style="fill:#d91920;fill-opacity:1;fill-rule:nonzero;stroke:none"
             d="m 2806.72,48.5391 c -46.13,10.332 -60.26,16.8828 -60.26,57.4099 l 0,563.684 c 0,18.816 -8.46,23.543 -23.51,23.543 l -149.61,0 c -5.64,0 -11.27,0 -14.11,-7.539 l -8.49,-18.797 c -5.61,-11.328 3.77,-15.078 13.18,-17.902 43.3,-9.395 57.43,-15.985 57.43,-56.434 l 0,-233.535 0.11,0 0,-241.141 -0.08,0.063 0,-1.563 0.08,0 0,-52.828 0.16,-0.0508 0,-28.9492 c 0,-18.8516 7.5,-30.12109 26.33,-29.19922 l 108.13,0 0.15,-0.07031 37.27,0 c 8.48,0 13.22,2.82812 16,7.55073 l 7.54,18.8204 c 3.77,7.5078 1.87,15.0273 -10.32,16.9375" /><path
             id="path28"
             style="fill:#d91920;fill-opacity:1;fill-rule:nonzero;stroke:none"
             d="m 723.246,48.5391 c -46.113,10.332 -60.195,16.8906 -60.195,57.4099 l 0,347.481 c 0,18.82 -8.496,23.535 -23.535,23.535 l -149.618,0 c -5.648,0 -11.296,0 -14.074,-7.527 l -8.527,-18.84 c -5.621,-11.27 3.801,-15.059 13.187,-17.871 43.258,-9.375 57.399,-15.965 57.399,-56.434 l 0,-17.316 0.129,0 0,-241.149 -0.059,0.063 0,-1.563 0.059,0 0,-52.828 0.125,-0.0508 0,-28.9492 c 0,-18.8398 7.523,-30.12109 26.324,-29.19922 l 108.164,0 0.172,-0.0625 37.289,0 c 8.437,0 13.16,2.82031 16,7.54292 l 7.504,18.8204 c 3.785,7.5078 1.89,15.0273 -10.344,16.9375" /><path
             id="path30"
             style="fill:#d91920;fill-opacity:1;fill-rule:nonzero;stroke:none"
             d="m 600.793,543.43 c 36.691,0 68.672,33.847 68.672,69.648 0,37.629 -31.981,69.61 -69.617,69.61 -37.637,0 -69.621,-31.075 -69.621,-69.61 0,-38.582 31.984,-69.648 70.566,-69.648" /><path
             id="path32"
             style="fill:#d91920;fill-opacity:1;fill-rule:nonzero;stroke:none"
             d="m 2051.49,485.109 c -36.81,0 -67.13,-23.398 -124.06,-79.238 l 0,49.863 c 0,19.746 -12.23,18.809 -22.58,18.809 l -151.47,0 c -5.63,0 -11.29,0 -14.09,-7.508 l -8.48,-18.828 c -5.65,-11.281 3.77,-15.051 13.17,-17.883 43.28,-9.394 57.39,-15.984 57.39,-56.426 l 0,-269.07 c 0,-35.7577 -24.46,-50.8085 -47.99,-55.5194 -6.58,-1.8672 -14.09,-2.8086 -17.87,-13.1602 l -5.64,-16 c -4.71,-14.09762 4.71,-15.99996 12.22,-15.99996 l 246.5,0 c 11.29,0 16.92,2.83984 20.69,7.54296 l 10.35,18.8203 c 4.7,7.5195 2.82,15.0391 -14.12,16.9297 -60.2,10.3477 -79.02,16.9297 -79.02,57.3866 l 0,114.766 c 0,25.73 -1.31,49.812 0.91,72.441 l 0,-10.148 c 0,7.179 0.43,13.867 1.22,20.109 0.04,0.242 0.05,0.496 0.11,0.742 0.05,0.321 0.11,0.614 0.15,0.938 2.46,15.125 7.03,29.578 15.23,43.406 9.48,14.453 21.32,22.316 31.01,24.641 14.83,3.582 32.5,2.683 45.82,-3.067 10.99,-4.738 21.95,-11.457 35.32,-11.457 16.22,0 30.53,8.594 41.04,20.996 9.54,13.36 13.36,31.504 13.36,48.672 0,32.473 -19.09,58.242 -59.17,58.242" /><path
             id="path34"
             style="fill:#d91920;fill-opacity:1;fill-rule:nonzero;stroke:none"
             d="m 1369.8,683.949 c 3.04,-0.969 5.98,-1.679 8.47,-2.168 5.74,-1.301 11.71,-2.57 17.88,-3.574 43.93,-7.512 90.8,-5.586 120.71,-1.699 -26.47,-68.137 -97.02,-81.047 -97.02,-81.047 -4.29,-1.082 -7.55,-1.395 -10.31,-2.039 -0.1,-0.02 -0.21,-0.039 -0.29,-0.07 -4.63,-1.141 -6.17,-6.082 -10.5,-14.95 l -9.11,-18.683 c -7.09,-14.305 8.1,-16.746 16.66,-15.02 l -0.35,-0.359 c 15.19,3.984 30.99,9.344 44.46,15.508 18.98,8.757 36.97,20.574 51.95,35.652 15.01,15 26.83,33.078 34.48,52.414 3.2,8.066 5.61,16.356 7.47,24.734 l 1,-0.144 c 26.67,-13.535 73.01,-32.004 119.28,-39.914 6.18,-0.996 12.31,-1.856 18.05,-2.442 2.6,-0.41 5.63,-0.71 8.83,-0.781 58.8,-1.863 116.56,48.664 118.96,50.938 0.75,0.578 1.07,1.66 0.75,2.531 -0.29,0.976 -1.03,1.687 -2.02,1.797 0,0 -0.17,0 -1.06,0.215 -3.77,0.644 -23.24,4.363 -34.67,14.726 -7.97,9.891 -9.42,20.762 -4.34,33.172 9.16,18.516 33.39,40.969 71.9,66.692 1.29,0.671 2.06,1.132 2.06,1.132 0.33,0.223 0.61,0.489 0.83,0.77 l 1.1,0.715 c 1.06,0.75 1.42,2.117 0.87,3.23 -0.55,1.184 -1.86,1.738 -3.05,1.348 -0.06,0.012 -6.73,-2.168 -13.48,-1.074 -5.48,0.949 -9.34,3.867 -11.48,8.535 -6.3,13.926 -1.72,50.117 55.84,143.664 0.66,1.101 0.44,2.48 -0.47,3.269 -0.97,0.832 -2.34,0.891 -3.29,0.098 -0.48,-0.379 -45.06,-35.281 -82.46,-40.859 -2.44,0.039 -4,0.839 -5.04,2.265 -2.52,3.625 -0.3,13.301 0.63,18.028 0.78,4.121 1.06,5.812 -0.82,6.621 -1.78,0.742 -3.05,-1.075 -3.91,-2.285 -11.31,-16.512 -14.98,-23.204 -32.78,-38.457 l 0.58,0.285 c -15.95,-9.844 -38.23,-21.094 -53.28,-18.567 -5.64,0.957 -9.69,3.711 -12.33,8.664 -6.87,12.871 -7.08,46.805 31.69,135.39 0.45,1.04 0.14,2.27 -0.7,2.97 -0.92,0.69 -2.17,0.79 -3.08,0.14 -0.2,-0.12 -18.35,-12.5 -38.67,-9.04 -29.75,4.98 -49.59,41.27 -57.45,104.79 -0.1,1.15 -1,2.02 -2.11,2.24 -1.08,0.16 -2.17,-0.4 -2.64,-1.41 -28.36,-57.35 -59.08,-85.05 -88.83,-79.96 -20.35,3.4 -33.42,21.04 -33.49,21.25 -0.69,0.98 -1.91,1.3 -2.95,0.88 -1.06,-0.41 -1.76,-1.44 -1.64,-2.55 7.29,-96.391 -4.01,-128.391 -14.84,-138.247 -4.07,-3.769 -8.82,-5.097 -14.52,-4.128 -15.61,2.675 -33.81,22.097 -45.62,36.875 -10.77,18.933 -12.21,26.699 -17.18,45.49 -0.45,1.37 -1.01,3.52 -2.99,3.37 -2.04,-0.07 -2.31,-1.74 -2.91,-5.96 -0.73,-4.74 -1.84,-14.631 -5.46,-17.229 -1.5,-0.996 -3.34,-1.171 -5.81,-0.332 -32.93,18.251 -62.72,64.531 -63.09,65.061 -0.6,1.04 -1.94,1.49 -3.1,1.01 -1.11,-0.5 -1.79,-1.68 -1.51,-2.9 23.42,-107.3 15.81,-143.003 5.25,-154.089 -3.48,-3.711 -8.09,-5.125 -13.57,-4.226 -6.66,1.18 -12.32,5.418 -12.32,5.418 -1.12,0.801 -2.52,0.683 -3.39,-0.203 -0.89,-0.91 -1.03,-2.383 -0.27,-3.34 l 0.81,-1.067 c 0.1,-0.371 0.25,-0.664 0.57,-1.015 0,0 0.54,-0.625 1.41,-1.57 27.94,-37.168 43.43,-66.301 45.97,-86.661 0.66,-13.566 -4.23,-23.332 -14.98,-30.07 -14.21,-6.016 -33.79,-3.152 -37.64,-2.461 -0.6,0.07 -0.99,0.137 -0.99,0.137 -0.98,0.168 -2.01,-0.184 -2.61,-0.985 -0.5,-0.91 -0.58,-1.925 -0.08,-2.785 1.67,-2.89 41.96,-70.008 98.04,-87.664" /><path
             id="path36"
             style="fill:#d91920;fill-opacity:1;fill-rule:nonzero;stroke:none"
             d="m 2386.33,143.547 c -1.41,-60.2775 -43.76,-76.6251 -73.64,-76.6251 -45.59,0 -77.58,33.9301 -77.58,88.2461 0,46.535 17.43,67.871 56.24,86.309 35.83,17.421 72.66,30.031 94.98,41.679 l 0,-139.609 z m 155.4,-85.8986 c -21.61,8.5 -30.09,16.0313 -30.09,49.8716 l 0,234.054 c 0,1.621 -0.19,3.067 -0.23,4.649 l 0.15,17.277 c 0,50.711 -8.2,134.402 -170.17,134.402 -129.95,0 -201.59,-40.828 -204.92,-92.644 -0.36,-5.567 0.35,-10.461 1.92,-14.778 0.85,-2.382 2.02,-4.511 3.34,-6.55 l -0.25,0.047 c 1.29,-2.489 2.74,-4.864 4.34,-7.098 7.26,-8.606 16.38,-15.274 26.68,-18.613 l -0.04,0 c 0.42,-0.176 1.01,-0.325 1.48,-0.481 0.43,-0.125 0.83,-0.281 1.24,-0.398 10.22,-3.098 29.73,-4.121 46.68,6.582 1.53,0.867 2.97,1.843 4.34,2.957 0.27,0.195 0.54,0.332 0.81,0.547 l -0.19,-0.028 c 7.14,6.075 12.17,15.379 15.93,27.188 14.61,45.828 58.12,62.097 78.65,63.086 30.71,1.492 64.33,-17.168 64.93,-78.789 l 0,-52.168 C 2340.76,300.617 2269.98,280.266 2206.01,259.895 2128.41,234.691 2104.18,193.969 2104.18,139.652 2104.18,65.9414 2154.59,0 2249.65,0 c 58.13,0 104.01,33.6719 136.87,55.9688 l 0,-22.75 c 0,-18.8399 7.52,-30.11724 26.32,-29.19927 l 133.61,0 c 8.46,0 15.06,0.92969 18.81,7.53127 l 4.71,17.8711 c 7.54,18.8164 -14.11,15.9883 -28.24,28.2265" /><path
             id="path38"
             style="fill:#d91920;fill-opacity:1;fill-rule:nonzero;stroke:none"
             d="m 1106.87,171.984 c -2.59,-17.82 -8.91,-37.5 -18.92,-58.996 -6.32,-13.7263 -15.96,-26.7263 -28.95,-38.9568 -8.52,-8.1601 -20.96,-15.6015 -37.27,-22.2695 -16.28,-6.6523 -32.585,-9.9922 -48.851,-10.0117 l 0,0.0703 c -14.996,0 -29.242,4.6914 -42.738,14.0586 -13.496,9.3711 -21.813,20.4297 -24.934,33.1719 -0.957,3.8711 -1.738,10.3203 -2.391,18.9612 l 0,45.496 c -0.113,1.992 -0.226,3.976 -0.328,6.094 l 0,212.949 c 0.098,0.09 0.223,0.187 0.328,0.273 l 0,19.883 c 2.258,0.996 4.563,2.004 7.02,3.027 22.269,9.27 41.555,13.899 57.883,13.899 26.359,0 50.741,-7.317 73.201,-21.965 22.44,-14.668 39.88,-36.934 52.32,-66.797 12.43,-29.863 18.64,-60.019 18.64,-90.43 0,-14.492 -1.66,-33.964 -5.01,-58.457 z m 67.47,249.075 c -20.59,19.832 -42.48,34.414 -65.68,43.679 -23.17,9.27 -53.14,13.918 -89.88,13.918 -13.73,0 -29.491,-2.043 -47.311,-6.113 -10.02,-2.227 -23.371,-7.336 -40.074,-15.313 -16.696,-7.98 -20.61,-13.273 -24.333,-15.859 -1.621,-1.183 -3.015,-2.336 -4.574,-3.496 l 0,58.086 0.328,0 0,173.309 c 0,18.75 -8.41,23.457 -23.429,23.457 l -149.102,0 c -5.648,0 -11.258,0 -14.09,-7.5 l -8.449,-18.75 c -5.586,-11.289 3.77,-15.008 13.137,-17.813 43.144,-9.383 57.234,-15.945 57.234,-56.269 l 0,-236.407 0.113,0 0,-163.875 0.102,-75.504 -0.023,0.032 0,-1.563 0.023,0 0.02,-11.187 0.019,0 0,-41.641 0.012,0 0,-1.2891 c 0,-0.5312 0.101,-0.9609 0.109,-1.4726 l 0,-26.2383 c 0,-18.8398 7.531,-30.12891 26.324,-29.19922 l 76.829,0 0,-0.21094 81.425,-3.460934 c 0.059,0 0.047,0 0.106,0 C 966.527,0.148438 969.867,0 973.141,0 c 44.889,0 76.629,3.53125 95.169,10.5586 28.21,10.4023 53.15,24.332 74.87,41.7617 21.71,17.4414 38.5,35.25 50.38,53.4417 16.31,25.226 28.1,51.097 35.34,77.629 7.23,26.535 10.84,50.371 10.84,71.515 0,32.645 -4.45,60.301 -13.36,82.938 -14.11,35.625 -31.45,63.359 -52.04,83.215" /></g></g></g></g></svg>